<svg width="48" height="48" viewBox="0 0 48 48" fill="none" xmlns="http://www.w3.org/2000/svg">
<circle cx="24" cy="24" r="23.5" fill="#F8F8F8" stroke="#ECECEC"/>
<path d="M15 17V16.25C14.8011 16.25 14.6103 16.329 14.4697 16.4697C14.329 16.6103 14.25 16.8011 14.25 17H15ZM33 17H33.75C33.75 16.8011 33.671 16.6103 33.5303 16.4697C33.3897 16.329 33.1989 16.25 33 16.25V17ZM15 17.75H33V16.25H15V17.75ZM32.25 17V29H33.75V17H32.25ZM31 30.25H17V31.75H31V30.25ZM15.75 29V17H14.25V29H15.75ZM17 30.25C16.31 30.25 15.75 29.69 15.75 29H14.25C14.25 29.7293 14.5397 30.4288 15.0555 30.9445C15.5712 31.4603 16.2707 31.75 17 31.75V30.25ZM32.25 29C32.25 29.69 31.69 30.25 31 30.25V31.75C31.7293 31.75 32.4288 31.4603 32.9445 30.9445C33.4603 30.4288 33.75 29.7293 33.75 29H32.25Z" fill="#858585"/>
<path d="M15 17L24 26L33 17" stroke="#858585" stroke-width="1.5" stroke-linecap="round" stroke-linejoin="round"/>
</svg>
